<svg xmlns="http://www.w3.org/2000/svg" version="1.1" xmlns:xlink="http://www.w3.org/1999/xlink" xmlns:svgjs="http://svgjs.dev/svgjs" width="1500" height="1500" viewBox="0 0 1500 1500"><rect width="1500" height="1500" fill="#ffffff"></rect><g transform="matrix(0.6666666666666666,0,0,0.6666666666666666,250.00007343750008,187.66666666666674)"><svg viewBox="0 0 320 360" data-background-color="#122023" preserveAspectRatio="xMidYMid meet" height="1687" width="1500" xmlns="http://www.w3.org/2000/svg" xmlns:xlink="http://www.w3.org/1999/xlink"><g id="tight-bounds" transform="matrix(1,0,0,1,0.000023499999997511622,0)"><svg viewBox="0 0 320 360" height="360" width="320"><g><svg></svg></g><g><svg viewBox="0 0 320 360" height="360" width="320"><g><path transform="translate(-74.99272,-51.79039) scale(4.65793,4.65793)" d="M20.6 59.9l0.8 1-0.4-1.3c-0.1-0.6-0.8 0.1-0.4 0.3M21.5 59.3c0.3 0.5 0.6 1 0.6 1.5 0 0.7 0.6 1 1.1 1.2-0.7-0.8-1.1-3-1.7-2.7M59.9 16.9c1.7 0 3.3-0.2 5.1 0.2 4.4 1.1 8.1 3.3 10.6 6.4l7 11.2c0.3 2.8 0.9 5.9 0.8 9.3 0.7 0 0.6-1 1.4-1.2-0.8 2-1.2 4.5-1.4 7.4-0.5-1.6 0-4 0.1-5.3-0.7 1.1-1.1 0.3-1.1-0.2 0.1-0.8-0.3-0.7-0.6-1-1.1-1-1.8-2.1-2.6-3.8 0.5-1.3 0.6-3.2-1-4.2-0.5-0.3-1.1-0.8-1.4-1.6-0.4-1.1-1.1-2.4-0.9-4.1 0.1-0.5-1.5 1.1-2.4 0.4-3.9-2.7-7.8-5.8-12.5-8.4-2.5 0-4.3-0.9-5.2-2-0.8-1-0.2-2.3 1-2.4 0.7 0 1.5-0.2 2.1 0.2 0.1-0.4 0.5-0.9 1-0.9M50 14.6l0.2 0.1c1 0.2 1.5 1.6 2.6 1.1 0 0.7 0.1 1.4-0.1 1.9-0.3 0.8-1.2 0.8-1.9 0.8-6.7-0.4-10.6 2.4-14.7 4.8-1.1 0.7-2.3 1.2-3.2 2.1-4.3 4-9 7.7-10.1 15.1l-0.9 8.2c-0.1 0.9-1.1 1.8-0.9 2.9l0.7 4.9c-0.7-0.7-1.1 0.2-0.9 0.6 0.1 0.3 0.5 1.3 1.1 0.4 0.8 1.5 1.6 4.4 2.7 5.7 3.4 4 7.8 7.6 11.4 11.2 0.9-0.2 1.6-0.2 1.8-0.8 0.3 0.6-0.3 1.2-0.8 1.3 1.6 1 3.4 1.9 5.8 2.1 3.1 0.2 6 0.7 8.7 1.4 1.4-0.4 2.8-0.6 4.3-0.7 0.5 0 0.8-0.8 1.4-1l0.1-1c0.6 0.9 0.5-0.3 0.1-0.9 0.7 0.6 0.9 1.1 1.2 1.5 0-0.3 0.8-1.4 0.8-0.1l0.2-1.3c0.3-0.2 0.4 1.1 0.7 0.2 0.3-0.9 0.9-0.2 1.5-0.5-0.2 0.4-0.1 1.2 0.6 0.7l0.8-0.7c0.5 1.2 1.3 0.7 1.7 0.5 4.4-2.8 8.8-6.1 13-9.4l-0.1 1.3 0.5-1.6c0.5 0.5 0.9 0.1 1.1-0.2 0.6-1 1.4-2 2.7-2.9-1.6 4.3-3.5 7.7-5.9 10.5l-1 1.2c0 0.7-0.2 1.6-1 1.7-0.4 0.1-1.2-0.2-1.8 0.4-0.3 0.4 0.7 1.2-0.1 0.6-0.7-0.5-1.4 0-2.2 0.2-0.6 0.2 0.4 0.8 0.6 1.2 0.2 0.4 0.4 0.8 0.3 1.3l-1.1-1.2c-1.3 0.7-2.1 2-3.2 3-0.5 0.4-0.3 1.1-0.3 1.7-0.7 0-1.5-0.2-1.9 0.2-0.3 0.4-0.2 1-0.2 1.6-1-0.1-1.1-1.6-2-1.3-0.9 0.2-1.9 0.3-2.7 0.8 0.6 1.2-1 0.5-0.8 0.7-1.5-0.9-2.8-1.6-4.4-1-3.4-1.1-7.6-0.6-10.7-0.2 0-0.5 0.1-1-0.1-1.1-0.2 0.5-0.8 0.3-0.7 0.3-1.9-1.3-3.8-2.1-5.8-3.2-1.8 0.2-3.5-0.7-4-1.2-1.4-1.3-3-0.6-4.3-0.9-2.8-0.7-3.8-3.6-4.1-5.6-0.2-1-1-1.4-1.3-1.3-1.3-4.2-3.3-8-4.9-11.9-0.4-1-0.3-2-0.3-3.1 0.5 0.2 1 0.1 0.9-0.6-0.5-3.3-1.7-5.8-3-8.2 0.7-3.4 0.8-7.4 2.4-10.4 1.4-2.7 4-4.1 5.8-6.4 0.6-0.8 0.6-1.9 1.2-2.6 2-2 4-4.1 6.2-5.9 1-0.8 2.2 0 3.7-0.3 0.5-1.8 2.5-3.4 4.4-2.9 0.8 0.2 2.4-1.9 2.9-2.1 0.8-0.3 0.4 0.8 0.4 1.5 1.9-1.5 4.5-2.3 6.9-3.2" fill="#000000" fill-rule="nonzero" stroke="none" stroke-width="1" stroke-linecap="butt" stroke-linejoin="miter" stroke-miterlimit="10" stroke-dasharray="" stroke-dashoffset="0" font-family="none" font-weight="none" font-size="none" text-anchor="none" style="mix-blend-mode: normal" data-fill-palette-color="tertiary"></path></g><g transform="matrix(1,0,0,1,116.01402001717744,90)"><svg viewBox="0 0 87.97195996564513 180" height="180" width="87.97195996564513"><g><svg viewBox="0 0 87.97195996564513 180" height="180" width="87.97195996564513"><g><svg viewBox="0 0 137.62081784386618 281.5868513281936" height="180" width="87.97195996564513"><g transform="matrix(1,0,0,1,0,101.5868513281936)"><svg viewBox="0 0 137.62081784386618 180" height="180" width="137.62081784386618"><g id="textblocktransform"><svg viewBox="0 0 137.62081784386618 180" height="180" width="137.62081784386618" id="textblock"><g><svg viewBox="0 0 137.62081784386618 180" height="180" width="137.62081784386618"><g transform="matrix(1,0,0,1,0,0)"><svg width="137.62081784386618" viewBox="2.3 -36 30.849999999999998 40.35" height="180" data-palette-color="#efefef"><path d="M2.3 4.35L2.3 4.35Q2.9 1.95 3.8-1 4.7-3.95 5.98-8.03 7.25-12.1 8.95-17.7 10.65-23.3 12.9-30.95L12.9-30.95Q13-31.2 13.13-31.83 13.25-32.45 13.25-33L13.25-33Q13.25-33.5 13.08-33.83 12.9-34.15 12.5-34.15L12.5-34.15Q11.3-34.15 10.23-33.23 9.15-32.3 8.38-30.9 7.6-29.5 7.15-27.98 6.7-26.45 6.7-25.25L6.7-25.25Q6.7-24.25 6.95-23.5L6.95-23.5Q5.3-23.5 4.63-24.33 3.95-25.15 3.95-26.35L3.95-26.35Q3.95-28.05 4.95-29.75 5.95-31.45 7.5-32.88 9.05-34.3 10.78-35.15 12.5-36 13.95-36L13.95-36Q15.45-36 16.43-34.73 17.4-33.45 18-31.23 18.6-29 19-26.2 19.4-23.4 19.75-20.4L19.75-20.4Q20.05-17.9 20.35-15.43 20.65-12.95 20.95-10.73 21.25-8.5 21.5-6.65 21.75-4.8 21.95-3.6L21.95-3.6Q22.3-5.95 22.98-8.93 23.65-11.9 24.48-15.13 25.3-18.35 26.2-21.43 27.1-24.5 27.88-27.08 28.65-29.65 29.23-31.38 29.8-33.1 30-33.55L30-33.55Q30.25-34.2 31.15-35.1 32.05-36 33.15-36L33.15-36Q32.3-33.7 31.23-30.38 30.15-27.05 29.05-23.18 27.95-19.3 26.9-15.28 25.85-11.25 25.03-7.5 24.2-3.75 23.73-0.68 23.25 2.4 23.2 4.35L23.2 4.35Q21.65 4.35 20.68 3.45 19.7 2.55 19.3 0.3L19.3 0.3Q19.05-1 18.68-3.28 18.3-5.55 17.88-8.35 17.45-11.15 17-14.18 16.55-17.2 16.13-20.1 15.7-23 15.35-25.43 15-27.85 14.75-29.45L14.75-29.45Q12.35-20.8 10.65-14.83 8.95-8.85 7.78-5.08 6.6-1.3 5.7 0.75 4.8 2.8 4 3.58 3.2 4.35 2.3 4.35Z" opacity="1" transform="matrix(1,0,0,1,0,0)" fill="#000000" class="wordmark-text-0" data-fill-palette-color="primary" id="text-0"></path></svg></g></svg></g></svg></g></svg></g><g transform="matrix(1,0,0,1,26.28557620817844,0)"><svg viewBox="0 0 85.0496654275093 75.3205313281936" height="75.3205313281936" width="85.0496654275093"><g><svg xmlns="http://www.w3.org/2000/svg" xmlns:xlink="http://www.w3.org/1999/xlink" version="1.1" x="0" y="0" viewBox="25.899860075925623 52.199999999999996 460.2501399240743 407.6004874176015" style="enable-background:new 0 0 512 512;" xml:space="preserve" height="75.3205313281936" width="85.0496654275093" class="icon-icon-0" data-fill-palette-color="accent" id="icon-0"><g fill="#e0dbc6" data-fill-palette-color="accent"><path d="M376.8 262c2.9 16.3 17.1 28.2 33.7 28.2 18.9 0 34.3-15.3 34.3-34.2 0-18.9-15.3-34.3-34.2-34.3-16.6 0-30.8 11.9-33.7 28.2H135.4c-2.9-16.3-17.1-28.2-33.7-28.2-18.9 0-34.2 15.3-34.2 34.2 0 18.9 15.3 34.2 34.2 34.2 9.1 0 17.8-3.6 24.2-10h0c5-4.9 8.3-11.3 9.5-18.2H376.8z" fill="#000000" data-fill-palette-color="accent"></path><path d="M476.1 325.7c-13.4-13.4-35.1-13.4-48.5 0 0 0 0 0 0 0h0c-5 5-8.3 11.4-9.5 18.3h-56.2c-12.6-0.1-22.8-10.4-22.8-23 0-19.2-15.5-34.9-34.8-35h-96.6c-19.2 0.1-34.8 15.8-34.8 35 0 12.6-10.2 22.9-22.8 23H94c-1.2-6.9-4.5-13.3-9.5-18.3-13.4-13.3-35-13.2-48.3 0.1-13.3 13.4-13.2 35 0.1 48.3 13.3 13.2 34.8 13.2 48.1 0 5-4.9 8.3-11.2 9.5-18.1h56.2c19.2-0.1 34.8-15.8 34.8-35 0-12.6 10.2-22.9 22.8-23h96.6c12.6 0.1 22.8 10.4 22.8 23 0 19.2 15.5 34.9 34.8 35h56.2c1.2 6.9 4.5 13.2 9.5 18.1 13.4 13.4 35.1 13.4 48.5 0C489.4 360.8 489.5 339.1 476.1 325.7z" fill="#000000" data-fill-palette-color="accent"></path><path d="M391.6 391.3c-9.1 0-17.9 3.6-24.3 10.1-5.8 5.8-9.3 13.5-9.9 21.6h-8.1c-12.7-0.1-23.9-8-28.3-19.9l-18.7-50.5c-6.2-16.5-21.9-27.5-39.6-27.6h-13c-17.6 0-33.4 11-39.6 27.5l-18.7 50.6c-4.4 11.9-15.7 19.8-28.3 19.9h-8.1c-1.5-18.7-17.9-32.6-36.6-31.1-18.7 1.5-32.6 17.9-31.1 36.6s17.9 32.6 36.6 31.1c8-0.6 15.5-4.1 21.2-9.8 4.1-4.2 7.1-9.3 8.7-14.8h9.2c17.7-0.1 33.4-11.1 39.6-27.7l18.7-50.5c4.4-11.8 15.7-19.7 28.3-19.7h13c12.6 0 23.9 7.8 28.3 19.7l18.7 50.6c6.2 16.6 21.9 27.6 39.6 27.7h9.2c1.8 5.5 4.7 10.6 8.6 14.8v-0.1c7 6.5 15.1 10 24.3 10 18.9 0.1 34.3-15.2 34.3-34.1C425.7 406.7 410.5 391.4 391.6 391.3z" fill="#000000" data-fill-palette-color="accent"></path><path d="M84.4 186.4c0 0 0.1-0.1 0.1-0.1 5-5 8.3-11.4 9.5-18.3h56.2c12.6 0.1 22.8 10.4 22.8 23 0 19.2 15.5 34.9 34.8 35h96.6c19.2-0.1 34.8-15.8 34.8-35 0-12.6 10.2-22.9 22.8-23h56.2c1.2 6.9 4.5 13.3 9.5 18.3 13.4 13.4 35.1 13.4 48.4 0 13.4-13.4 13.4-35.1 0-48.4-13.4-13.4-35-13.4-48.4 0l0 0c-5 4.9-8.3 11.2-9.5 18.1h-56.2c-19.2 0.1-34.8 15.8-34.8 35 0 12.6-10.2 22.9-22.8 23h-96.6c-12.6-0.1-22.8-10.4-22.8-23 0-19.2-15.5-34.9-34.8-35H94c-1.2-6.9-4.5-13.2-9.5-18.1-13.4-13.4-35.1-13.5-48.5-0.1-13.4 13.4-13.5 35.1-0.1 48.5C49.3 199.7 71 199.8 84.4 186.4z" fill="#000000" data-fill-palette-color="accent"></path><path d="M144.9 110.6c5.8-5.8 9.3-13.4 9.9-21.6h8.1c12.7 0.1 23.9 8 28.3 19.9l18.7 50.5c6.2 16.5 21.9 27.5 39.6 27.6h13c17.6 0 33.4-11 39.6-27.5l18.7-50.6c4.4-11.9 15.7-19.8 28.3-19.9h8.1c1.5 18.7 17.9 32.6 36.6 31.1s32.6-17.9 31.1-36.6-17.9-32.6-36.6-31.1c-8 0.6-15.5 4.1-21.2 9.8-4.1 4.2-7.1 9.3-8.7 14.8h-9.2c-17.7 0.1-33.4 11.1-39.6 27.7l-18.7 50.5c-4.4 11.8-15.7 19.7-28.3 19.7h-13c-12.6 0-23.9-7.8-28.3-19.7l-18.7-50.6c-6.2-16.6-21.9-27.6-39.6-27.7h-9.2c-1.8-5.5-4.7-10.6-8.6-14.8v0.1c-7-6.5-15.1-10-24.3-10-9.1 0-17.9 3.6-24.3 10.1-13.3 13.4-13.3 35 0.1 48.4C110 124 131.6 124 144.9 110.6z" fill="#000000" data-fill-palette-color="accent"></path></g></svg></g></svg></g><g></g></svg></g></svg></g></svg></g></svg></g><defs></defs></svg><rect width="320" height="360" fill="none" stroke="none" visibility="hidden"></rect></g></svg></g></svg>